<?xml version="1.0" encoding="utf-8"?>
<!-- Generator: Adobe Illustrator 25.0.0, SVG Export Plug-In . SVG Version: 6.00 Build 0)  -->
<svg version="1.1" xmlns="http://www.w3.org/2000/svg" xmlns:xlink="http://www.w3.org/1999/xlink" x="0px" y="0px"
	 viewBox="0 0 750 500" style="enable-background:new 0 0 750 500;" xml:space="preserve">
<style type="text/css">
	.st0{display:none;}
	.st1{fill:#4F2CDF;}
	.st2{fill:url(#SVGID_1_);}
	.st3{fill:#E6F2FF;}
	.st4{fill:#FFFFFF;}
	.st5{fill:#00213C;}
	.st6{fill:#C8D6FD;}
	.st7{opacity:0.3;fill:#94B2FD;}
	.st8{fill:#0A2A44;}
	.st9{fill:#F9FCFF;}
	.st10{fill:#F3645A;}
	.st11{fill:#00CF9A;}
	.st12{fill:#F9FCFF;stroke:#000000;stroke-width:3;stroke-miterlimit:10;}
	.st13{fill:#00141E;}
	.st14{fill:none;stroke:#F9FCFF;stroke-miterlimit:10;}
	.st15{fill:none;stroke:#F9FCFF;stroke-miterlimit:10;stroke-dasharray:2.9672,2.9672;}
	.st16{fill:none;stroke:#F9FCFF;stroke-miterlimit:10;stroke-dasharray:3.0277,3.0277;}
	.st17{fill:#F1F4FE;}
	.st18{fill:#E2E8FD;}
	.st19{fill:#030332;}
	.st20{fill:#F7EEDA;}
	.st21{fill:#F39E6E;}
	.st22{fill:#0F2739;}
	.st23{fill:#231E31;}
	.st24{fill:#B2684B;}
	.st25{fill:#E87555;}
	.st26{fill:none;stroke:#101014;stroke-width:0.8;stroke-linecap:round;stroke-linejoin:round;stroke-miterlimit:10;}
	.st27{fill:#E8EEF6;}
	.st28{fill:none;stroke:#E8EEF6;stroke-miterlimit:10;}
	.st29{font-family:'Bauhaus93';}
	.st30{font-size:30px;}
	.st31{font-size:20px;}
</style>
<g id="BACKGROUND" class="st0">
</g>
<g id="OBJECTS">
	<g>
		<g>
			<path class="st1" d="M568.27,392.51c0-4.27-3.46-7.74-7.73-7.74c-4.27,0-7.73,3.46-7.73,7.74c0,4.12,3.22,7.48,7.29,7.71v32.51
				h0.9v-11.99c6.53-1.02,6.01-7.2,6.01-7.2c-3.81,0.78-5.37,3.08-6.01,4.89v-18.21C565.04,399.99,568.27,396.63,568.27,392.51z"/>
			<path class="st1" d="M541.2,419.52v-16.33c6.22-0.93,5.73-6.79,5.73-6.79c-3.73,0.77-5.17,3.08-5.73,4.81v-8.04
				c4.06-0.23,7.29-3.59,7.29-7.71c0-4.27-3.46-7.73-7.73-7.73c-4.27,0-7.73,3.46-7.73,7.73c0,4.12,3.22,7.48,7.28,7.71v15.61
				c-0.74-2.37-2.68-5.62-7.87-6.68c0,0-0.68,8.04,7.87,9.29v21.35h0.9v-10.62c11.02-1.46,10.14-11.77,10.14-11.77
				C544.24,411.8,541.94,416.5,541.2,419.52z"/>
			<path class="st1" d="M609.91,410.34c-7.09,1.46-9.39,6.16-10.14,9.17v-16.33c6.22-0.93,5.73-6.79,5.73-6.79
				c-3.73,0.77-5.17,3.08-5.73,4.81v-8.04c4.06-0.23,7.29-3.59,7.29-7.71c0-4.27-3.46-7.73-7.73-7.73c-4.27,0-7.73,3.46-7.73,7.73
				c0,4.12,3.22,7.48,7.28,7.71v15.61c-0.74-2.37-2.68-5.62-7.87-6.68c0,0-0.68,8.04,7.87,9.29v21.35h0.9v-10.62
				C610.79,420.65,609.91,410.34,609.91,410.34z"/>
			<path class="st1" d="M578.08,420.28v-23.83c7.69-1.15,7.08-8.41,7.08-8.41c-4.6,0.94-6.39,3.79-7.08,5.93v-8.55
				c5.19-0.24,9.33-4.51,9.33-9.76c0-5.4-4.38-9.78-9.78-9.78c-5.4,0-9.78,4.38-9.78,9.78c0,5.25,4.14,9.52,9.33,9.76v21
				c-0.61-1.63-2.05-3.64-5.43-4.33c0,0-0.47,5.6,5.43,6.54v24.1h0.9v-9.52c10.92-1.51,10.04-11.76,10.04-11.76
				C581.3,412.86,578.92,417.26,578.08,420.28z"/>
		</g>
		<g>
			<g>
				<linearGradient id="SVGID_1_" gradientUnits="userSpaceOnUse" x1="528.024" y1="56.9475" x2="355.4164" y2="360.887">
					<stop  offset="0" style="stop-color:#FFFFFF"/>
					<stop  offset="1" style="stop-color:#BECFFD"/>
				</linearGradient>
				<path class="st2" d="M657.93,347.97H212.85V95.06c0-6.07,4.92-11,11-11h423.08c6.07,0,11,4.92,11,11V347.97z"/>
				<path class="st3" d="M657.93,347.97H212.85V95.06c0-6.07,4.92-11,11-11h423.08c6.07,0,11,4.92,11,11V347.97z"/>
				<path class="st3" d="M578.9,84.07L314.99,347.97h-19.62L559.28,84.07H578.9z M212.85,208.04v39.9L376.72,84.07h-39.9
					L212.85,208.04z M540.12,84.07h-91.2L212.85,320.14v27.84h63.36L540.12,84.07z M572.84,347.97l85.09-85.09v-39.22L533.62,347.97
					H572.84z M646.93,84.07h-11.95L371.07,347.97h133l153.86-153.86V95.06C657.93,88.99,653.01,84.07,646.93,84.07z"/>
				<g>
					<path class="st4" d="M223.85,382.12c-2.48,0-4.5-2.02-4.5-4.5v-23.15h432.08v23.15c0,2.48-2.02,4.5-4.5,4.5H223.85z"/>
					<path class="st5" d="M644.93,360.97v14.65H225.85v-14.65H644.93 M657.93,347.97H212.85v29.65c0,6.07,4.92,11,11,11h423.08
						c6.07,0,11-4.92,11-11V347.97L657.93,347.97z"/>
				</g>
				<rect x="393.27" y="388.62" class="st6" width="84.25" height="38.61"/>
				<path class="st1" d="M247.97,432.15c0,2.32,83.14,4.19,185.7,4.19c102.56,0,185.7-1.88,185.7-4.19c0-2.32-83.14-4.19-185.7-4.19
					C331.11,427.96,247.97,429.84,247.97,432.15z"/>
				<rect x="358.98" y="427.23" class="st4" width="152.83" height="5.5"/>
				<path class="st5" d="M646.93,84.07H223.85c-6.07,0-11,4.92-11,11v252.91h445.08V95.06C657.93,88.99,653.01,84.07,646.93,84.07z
					 M644.08,334.13H226.7V97.91h417.38V334.13z"/>
			</g>
			<path class="st6" d="M439.51,368.3c0,3.23-2.61,5.84-5.84,5.84c-3.23,0-5.84-2.61-5.84-5.84c0-3.23,2.61-5.84,5.84-5.84
				C436.89,362.46,439.51,365.07,439.51,368.3z"/>
		</g>
		<g>
			<path class="st7" d="M495.95,156.79H632.5c2.43,0,4.4-1.97,4.4-4.4V84.07H491.55v68.32
				C491.55,154.82,493.52,156.79,495.95,156.79z"/>
			<path class="st8" d="M629.71,154H493.16c-2.43,0-4.4-1.97-4.4-4.4V68.05c0-2.43,1.97-4.4,4.4-4.4h136.56c2.43,0,4.4,1.97,4.4,4.4
				v81.55C634.11,152.03,632.14,154,629.71,154z"/>
			<g>
				<path class="st7" d="M594.76,57.53c-16.35,0-29.61,13.26-29.61,29.61c0,16.35,13.26,29.61,29.61,29.61s29.61-13.26,29.61-29.61
					C624.37,70.79,611.11,57.53,594.76,57.53z M594.76,101.31c-7.82,0-14.16-6.34-14.16-14.16c0-7.82,6.34-14.16,14.16-14.16
					c7.82,0,14.16,6.34,14.16,14.16C608.92,94.97,602.58,101.31,594.76,101.31z"/>
				<path class="st9" d="M593.84,56.61c-16.35,0-29.61,13.26-29.61,29.61c0,16.35,13.26,29.61,29.61,29.61
					c16.35,0,29.61-13.26,29.61-29.61C623.45,69.87,610.19,56.61,593.84,56.61z M593.84,100.38c-7.82,0-14.16-6.34-14.16-14.16
					c0-7.82,6.34-14.16,14.16-14.16c7.82,0,14.16,6.34,14.16,14.16C608,94.04,601.66,100.38,593.84,100.38z"/>
				<g>
					<path class="st10" d="M580.97,96.91c-2.41-2.9-3.87-6.63-3.87-10.69c0-8.71,6.68-15.88,15.19-16.66V59.23
						c-14.19,0.8-25.49,12.6-25.49,26.99c0,6.9,2.6,13.2,6.87,17.98L580.97,96.91z"/>
					<path class="st11" d="M595.38,69.56c8,0.74,14.38,7.12,15.12,15.12h10.33c-0.78-13.68-11.76-24.67-25.44-25.44V69.56z"/>
					<path class="st8" d="M610.5,87.77c-0.78,8.51-7.96,15.19-16.66,15.19c-4.06,0-7.78-1.45-10.69-3.87l-7.3,7.3
						c4.78,4.27,11.08,6.87,17.98,6.87c14.39,0,26.19-11.3,26.99-25.49H610.5z"/>
				</g>
			</g>
		</g>
		<g>
			<g>
				<path class="st7" d="M364.27,200.17H207.16c-2.91,0-5.27-2.36-5.27-5.27V86.39c0-2.91,2.36-5.27,5.27-5.27h157.11
					c2.91,0,5.27,2.36,5.27,5.27V194.9C369.54,197.81,367.18,200.17,364.27,200.17z"/>
			</g>
			<g>
				<path class="st12" d="M356.48,191.99H199.37c-2.91,0-5.27-2.36-5.27-5.27V78.21c0-2.91,2.36-5.27,5.27-5.27h157.11
					c2.91,0,5.27,2.36,5.27,5.27v108.51C361.75,189.63,359.39,191.99,356.48,191.99z"/>
				<g>
					<g>
						<rect x="218.6" y="129.75" class="st11" width="11.48" height="24.61"/>
						<rect x="223.41" y="119.88" class="st7" width="1.86" height="9.88"/>
						<rect x="223.41" y="154.36" class="st7" width="1.86" height="9.88"/>
					</g>
					<g>
						<rect x="261.47" y="140.43" class="st10" width="11.48" height="3.26"/>
						<rect x="266.28" y="130.55" class="st7" width="1.86" height="9.88"/>
						<rect x="266.28" y="143.69" class="st7" width="1.86" height="9.88"/>
					</g>
					<g>
						<rect x="282.9" y="136.72" class="st10" width="11.48" height="13.93"/>
						<rect x="287.71" y="126.84" class="st7" width="1.86" height="9.88"/>
						<rect x="287.71" y="150.65" class="st7" width="1.86" height="9.88"/>
					</g>
					<g>
						<rect x="304.34" y="131.32" class="st10" width="11.48" height="38.66"/>
						<rect x="309.15" y="121.45" class="st7" width="1.86" height="9.88"/>
						<rect x="309.15" y="169.98" class="st7" width="1.86" height="9.88"/>
					</g>
					<g>
						<rect x="325.77" y="108.4" class="st11" width="11.48" height="45.96"/>
						<rect x="330.58" y="98.53" class="st7" width="1.86" height="9.88"/>
						<rect x="330.58" y="154.36" class="st7" width="1.86" height="9.88"/>
					</g>
					<g>
						<rect x="240.03" y="96.1" class="st11" width="11.48" height="45.96"/>
						<rect x="244.84" y="86.22" class="st7" width="1.86" height="9.88"/>
						<rect x="244.84" y="142.06" class="st7" width="1.86" height="9.88"/>
					</g>
				</g>
			</g>
		</g>
		<g>
			<path class="st7" d="M436.61,143.98c21.34,0,38.64-17.3,38.64-38.64c0-7.86-2.36-15.17-6.39-21.28h-64.49
				c-4.03,6.1-6.39,13.41-6.39,21.28C397.97,126.68,415.27,143.98,436.61,143.98z"/>
			
				<ellipse transform="matrix(0.1621 -0.9868 0.9868 0.1621 263.277 514.6392)" class="st9" cx="434.69" cy="102.29" rx="38.64" ry="38.64"/>
			<g>
				<path class="st11" d="M411.29,117.39h44.75c1.42,0,2.57-1.15,2.57-2.57V89.75c0-1.42-1.15-2.57-2.57-2.57h-44.75
					c-1.42,0-2.57,1.15-2.57,2.57v25.07C408.72,116.24,409.87,117.39,411.29,117.39z"/>
				<g>
					<path class="st9" d="M433.67,108.33l-16.53-10.16c-0.91-0.56-1.19-1.74-0.63-2.65c0.56-0.91,1.74-1.19,2.65-0.63l14.51,8.92
						l14.51-8.92c0.91-0.56,2.09-0.27,2.65,0.63c0.56,0.91,0.27,2.09-0.63,2.65L433.67,108.33z"/>
				</g>
			</g>
		</g>
		<g>
			<path class="st7" d="M622.72,317.18H394.79c-2.43,0-4.4-1.97-4.4-4.4V178.21c0-2.43,1.97-4.4,4.4-4.4h227.92
				c2.43,0,4.4,1.97,4.4,4.4v134.57C627.11,315.21,625.15,317.18,622.72,317.18z"/>
			<path class="st13" d="M617.99,312.45H390.07c-2.43,0-4.4-1.97-4.4-4.4V173.48c0-2.43,1.97-4.4,4.4-4.4h227.92
				c2.43,0,4.4,1.97,4.4,4.4v134.57C622.39,310.48,620.42,312.45,617.99,312.45z"/>
			
				<rect x="444.44" y="134.51" transform="matrix(-1.836970e-16 1 -1 -1.836970e-16 744.7943 -263.2589)" class="st5" width="119.17" height="212.53"/>
			
				<rect x="378.09" y="216.06" transform="matrix(-1.836970e-16 1 -1 -1.836970e-16 678.4456 -196.9102)" class="st8" width="119.17" height="49.41"/>
			
				<rect x="476.91" y="216.06" transform="matrix(-1.836970e-16 1 -1 -1.836970e-16 777.2657 -295.7303)" class="st8" width="119.17" height="49.41"/>
			<path class="st10" d="M544.98,260.23v40.12H397.76v-49.33l10.5-24.44l1.85,9.66l5.56-7.3l5.76,15.28l2.4-34.01l10.84,29.35
				l6.96-8.29l3.34,12.94l10.39,27.65l6.68-42.93l2.23,24.17l6.31-19.65l2.74,7.31l3.2-14.79l3.71,5.29l2.97-13.44
				c0,0,2.6,5.25,3.71,7.38h5l9.83,23.95l4.45-14.77l4.38,27.52l4.89-9.28l11.87,32.46l9.24-24.86H544.98"/>
			<g>
				<g>
					<line class="st14" x1="544.98" y1="260.23" x2="546.48" y2="260.23"/>
					<line class="st15" x1="549.45" y1="260.23" x2="607.31" y2="260.23"/>
					<line class="st14" x1="608.79" y1="260.23" x2="610.29" y2="260.23"/>
				</g>
			</g>
			<path class="st9" d="M548.02,260.23c0,1.68-1.36,3.05-3.05,3.05c-1.68,0-3.05-1.36-3.05-3.05c0-1.68,1.36-3.05,3.05-3.05
				C546.66,257.19,548.02,258.55,548.02,260.23z"/>
			<g>
				<g>
					<line class="st14" x1="398.38" y1="210.2" x2="399.88" y2="210.2"/>
					<line class="st16" x1="402.91" y1="210.2" x2="607.28" y2="210.2"/>
					<line class="st14" x1="608.79" y1="210.2" x2="610.29" y2="210.2"/>
				</g>
			</g>
			<g>
				<polygon class="st7" points="657.93,251.99 627.43,251.99 615.62,262.32 627.43,272.64 657.93,272.64 				"/>
				<polygon class="st10" points="670.39,270.56 625.35,270.56 613.53,260.23 625.35,249.91 670.39,249.91 				"/>
			</g>
			<polygon class="st7" points="657.93,201.96 627.43,201.96 615.62,212.29 627.43,222.61 657.93,222.61 			"/>
			<polygon class="st11" points="670.39,220.52 625.35,220.52 613.53,210.2 625.35,199.88 670.39,199.88 			"/>
		</g>
		<g>
			<path class="st7" d="M587.08,134.62h-6.85v-2.46c0-1.34-1.08-2.42-2.42-2.42c-1.34,0-2.42,1.08-2.42,2.42v2.46h-35v-2.46
				c0-1.34-1.08-2.42-2.42-2.42l0,0c-1.34,0-2.42,1.08-2.42,2.42v2.46h-7.3c-2.7,0-4.89,2.19-4.89,4.89v58.83
				c0,2.7,2.19,4.89,4.89,4.89h58.83c2.7,0,4.89-2.19,4.89-4.89v-58.83C591.97,136.81,589.78,134.62,587.08,134.62z"/>
			<g>
				<path class="st10" d="M590.16,144.91h-68.62v-7.21c0-2.7,2.19-4.89,4.89-4.89h58.83c2.7,0,4.89,2.19,4.89,4.89V144.91z"/>
				<path class="st9" d="M585.27,201.43h-58.83c-2.7,0-4.89-2.19-4.89-4.89v-51.62h68.62v51.62
					C590.16,199.23,587.97,201.43,585.27,201.43z"/>
				<g>
					<rect x="529.7" y="159.59" class="st17" width="12.92" height="13.34"/>
					<rect x="529.7" y="179.93" class="st17" width="12.92" height="13.34"/>
					<rect x="549.62" y="159.59" class="st17" width="12.92" height="13.34"/>
					<rect x="549.62" y="179.93" class="st17" width="12.92" height="13.34"/>
					<rect x="569.54" y="159.59" class="st17" width="12.92" height="13.34"/>
					<rect x="569.54" y="179.93" class="st17" width="12.92" height="13.34"/>
				</g>
				<path class="st9" d="M536.16,137.69L536.16,137.69c-1.34,0-2.42-1.08-2.42-2.42v-4.93c0-1.34,1.08-2.42,2.42-2.42l0,0
					c1.34,0,2.42,1.08,2.42,2.42v4.93C538.58,136.61,537.5,137.69,536.16,137.69z"/>
				<path class="st9" d="M576,137.69L576,137.69c-1.34,0-2.42-1.08-2.42-2.42v-4.93c0-1.34,1.08-2.42,2.42-2.42l0,0
					c1.34,0,2.42,1.08,2.42,2.42v4.93C578.42,136.61,577.33,137.69,576,137.69z"/>
			</g>
			<rect x="542.89" y="151.14" class="st18" width="26.38" height="2.91"/>
		</g>
		<g>
			<g>
				<path class="st1" d="M106.8,432.15c0,2.32,22.32,4.19,49.86,4.19c27.54,0,49.86-1.88,49.86-4.19s-22.32-4.19-49.86-4.19
					C129.12,427.96,106.8,429.84,106.8,432.15z"/>
				<g>
					<path class="st5" d="M175.34,432.15l-0.88-16.19l10.17-0.16l1.46,4.74c0,0,2.38,3.96,6.63,5.99c4.83,2.3,11.62,2.85,11.62,5.62
						h-17.28l-8.15-4.7l-1.39,4.7L175.34,432.15z"/>
					<polygon class="st19" points="174.63,418.79 185.25,416.33 186.08,420.55 186.08,420.55 174.87,422.54 					"/>
				</g>
				<g>
					<path class="st5" d="M109.92,432.15l2.37-16.19l10.21-0.16l0.27,4.74c0,0,1.38,3.96,5.13,5.99c4.26,2.3,10.91,2.85,10.22,5.62
						h-17.28l-6.98-4.7l-1.78,4.7L109.92,432.15z"/>
					<polygon class="st19" points="111.89,418.76 122.54,416.43 122.78,420.55 111.34,422.5 					"/>
				</g>
				<path class="st5" d="M115.8,237.54l38.42-4.08c0,0,30.73,135.06,32.84,185.11l-13.41,0.86l-37.35-153.57L125.2,420.31h-15.37
					C109.79,394.71,105.22,287.1,115.8,237.54z"/>
				<path class="st13" d="M118.3,237.28c-2.12,17.94-9.44,89.38-4.22,183.03h-0.95c-5.2-93.32,2.04-164.6,4.2-182.93L118.3,237.28z
					 M133.28,235.68l2.53,30.22c0.01,0.14,0.09,0.27,0.21,0.35c0.07,0.05,0.15,0.06,0.23,0.07l0.03-0.46l0.11,0.46
					c0.01,0,0.02,0,0.03,0c1.03-0.32,1.91-0.91,2.63-1.73l37.84,154.64l0.96-0.06l-38.02-155.37c-0.02-0.06-0.04-0.12-0.08-0.17
					c0.1-0.17,0.2-0.35,0.3-0.53c3.43-6.76-0.33-21.53-2.22-27.89l-0.97,0.1c1.82,6.17,5.61,20.92,2.34,27.36
					c-0.62,1.22-1.45,2.06-2.51,2.54l-2.48-29.62L133.28,235.68z"/>
				<g>
					<path class="st13" d="M139.48,128.34c-3.86,0.47-7.59,1.88-10.24,4.36c-3.66,3.42-5.02,8.59-5.94,13.52
						c-0.92,4.92-1.66,10.09-4.5,14.21c-3.21,4.65-8.7,7.35-11.92,11.99c-3.86,5.55-3.65,13.61,0.49,18.95
						c2.91,3.76,7.36,6.05,11.89,7.51c7.04,2.27,14.51,2.82,21.91,3c4.65,0.11,9.37,0.07,13.84-1.22c4.47-1.29,8.71-3.99,10.92-8.08
						c2.56-4.72,2.07-10.52,0.69-15.71c-1.38-5.19-3.57-10.19-4.26-15.52c-0.53-4.12-0.14-8.29-0.11-12.44
						c0.03-4.01-0.15-9.08-2.37-12.55c-2.23-3.49-6.77-6.06-10.62-7.25C146.31,128.22,142.85,127.92,139.48,128.34z"/>
					<path class="st4" d="M154.22,233.46l1.73-16.26c0,0,0.01,0,0.02-0.01c0.24-0.32,3.37-4.36,4.97-8.06
						c0.43-1,0.75-1.97,0.87-2.84c1.2-8.64-5.02-23.95-5.02-23.95l-8.56-6.15c0,0-6.31-1.3-10.57-1.85c-3.47-0.45-2.2-0.83-5.25-0.2
						c-1.58,0.32-7.83,3.04-9.07,3.42c-2.61,0.81-7.55,59.98-7.55,59.98L154.22,233.46z"/>
					<path class="st5" d="M157.7,181.19c3.46,1.68,7.35,8.95,9.28,14.6c1.93,5.65,8.54,26.96,8.54,26.96l-2.93,8.53l-12.52-15.26
						L157.7,181.19z"/>
					<path class="st5" d="M157.7,181.19c0,0,7.15,18.23,5.78,26.55c-1.37,8.32-3.4,11.98-3.4,11.98l4.23,33.41h-10.34
						c0,0-1.87-31.99-2.61-41.99c-0.74-10-2.06-34.4-2.06-34.4L157.7,181.19z"/>
					<path class="st5" d="M132.41,174.14l-5.91,83.04l-17.69-0.3l8.35-38.31l0.7-40.47c0,0,2.63-1.2,5.48-2.12
						C126.25,175.05,129.42,174.38,132.41,174.14z"/>
					<path class="st20" d="M144.7,172.23c0,0,3.69,1.44,4.32,3.11c0.63,1.67,0.54,9.78-0.72,9.81c-1.26,0.04-6.45-6.32-6.45-6.32
						s-5.63,7.3-7.05,7.09c-1.43-0.21-5.09-12.88-0.5-14.51C137.47,170.29,144.7,172.23,144.7,172.23z"/>
					<g>
						<path class="st21" d="M134.58,172.25l-1.06-16.15c0,0-6.45,1.44-6.37-3.69c0.07-4.57,5.03-4.36,7.16-1.97
							c0,0-2.48-16.26,11.32-15.98c13.8,0.28,11.83,19.01,11.37,23.54c-0.81,7.98-6.96,11.17-11.14,11.1l-0.23,4.92
							c0,0-0.15,4.32-4.19,4.02C136.05,177.65,134.58,172.25,134.58,172.25z"/>
					</g>
					<g>
						<path class="st22" d="M142.48,150.22c-0.2,0.79,0.27,1.6,1.06,1.8c0.79,0.2,1.6-0.27,1.8-1.06c0.2-0.79-0.27-1.6-1.06-1.8
							C143.49,148.96,142.69,149.43,142.48,150.22z"/>
					</g>
					<g>
						<path class="st22" d="M149.91,151.41c-0.2,0.79,0.27,1.6,1.06,1.8c0.79,0.2,1.6-0.27,1.8-1.06c0.2-0.79-0.27-1.6-1.06-1.8
							C150.92,150.14,150.12,150.62,149.91,151.41z"/>
					</g>
					<g>
						<path class="st22" d="M132.75,153.9c-0.19-0.03-0.34-0.2-0.33-0.4c0.02-0.68-0.31-1.35-0.85-1.75
							c-0.54-0.41-1.28-0.53-1.92-0.32c-0.21,0.07-0.43-0.05-0.5-0.26c-0.07-0.21,0.05-0.43,0.26-0.5c0.89-0.29,1.9-0.12,2.64,0.44
							c0.74,0.56,1.19,1.48,1.16,2.41c-0.01,0.22-0.19,0.39-0.41,0.39C132.78,153.91,132.76,153.9,132.75,153.9z"/>
					</g>
					<g>
						<path class="st22" d="M130.95,153.22c-0.08-0.01-0.15-0.05-0.21-0.11c-0.16-0.15-0.16-0.4-0.01-0.56l1-1.05
							c0.15-0.16,0.4-0.16,0.56-0.01c0.16,0.15,0.16,0.4,0.01,0.56l-1,1.05C131.2,153.2,131.07,153.24,130.95,153.22z"/>
					</g>
					<g>
						<path class="st23" d="M150.18,146.53c-0.11-0.02-0.22-0.08-0.3-0.18c-0.16-0.2-0.12-0.5,0.08-0.65
							c1.48-1.14,3.77-0.91,4.99,0.5c0.17,0.19,0.15,0.49-0.05,0.66c-0.19,0.17-0.49,0.15-0.66-0.05c-0.9-1.03-2.64-1.21-3.72-0.38
							C150.43,146.52,150.31,146.55,150.18,146.53z"/>
					</g>
					<path class="st24" d="M146,169.09c-2.77,0.01-7.9-2.94-7.9-2.94s2.82,4.18,7.65,5.38L146,169.09z"/>
					<path class="st25" d="M143.34,155.74c-0.47,1.08-1.72,1.57-2.8,1.1c-1.08-0.47-1.57-1.72-1.1-2.8c0.47-1.08,1.72-1.57,2.8-1.1
						C143.31,153.41,143.81,154.67,143.34,155.74z"/>
					<path class="st25" d="M155.9,157.78c-0.47,1.08-1.72,1.57-2.8,1.1c-1.08-0.47-1.57-1.72-1.1-2.8c0.47-1.08,1.72-1.57,2.8-1.1
						C155.88,155.45,156.37,156.7,155.9,157.78z"/>
					<path class="st13" d="M134.31,150.44c0.73,1.03,0.63,7.81,1.36,7.28c0.73-0.53,1.39-12.24,1.39-12.24s6.09-3.25,7.25-7.51
						c0,0,2.9,13.31,13.45,13.81c0,0,0.6-19.74-13.4-19.22c-14,0.53-13.93,12.83-13.93,12.83L134.31,150.44z"/>
				</g>
				<g>
					<path class="st20" d="M142.98,190.85c0.02,0,0.05,0,0.07-0.01c0.26-0.04,0.44-0.28,0.4-0.54l-1.59-10.55
						c-0.04-0.26-0.28-0.43-0.54-0.4c-0.26,0.04-0.44,0.28-0.4,0.54l1.59,10.55C142.55,190.68,142.75,190.85,142.98,190.85z"/>
				</g>
				<g>
					<path class="st20" d="M136.88,227.97c0.12,0,0.25-0.05,0.34-0.15c5.5-5.76,9.1-13.29,10.14-21.19c0.03-0.26-0.15-0.5-0.41-0.53
						c-0.26-0.03-0.5,0.15-0.53,0.41c-1.01,7.7-4.52,15.04-9.89,20.66c-0.18,0.19-0.17,0.49,0.02,0.67
						C136.64,227.93,136.76,227.97,136.88,227.97z"/>
				</g>
				<g>
					<path class="st13" d="M127.15,222.12c0.03,0,0.06,0,0.09-0.01c0.21-0.05,0.35-0.26,0.3-0.47c-2.21-9.67-5.54-25.5-5.07-26.78
						c0.66-1.82,4.99-9.49,5.03-9.57c0.05-0.1,0.07-0.21,0.03-0.32c-0.04-0.11-0.11-0.19-0.22-0.24c-2.01-0.88-4.92-2.61-4.82-3.5
						c0.14-1.21,2.55-3.89,3.47-4.83c0.15-0.16,0.15-0.41,0-0.56c-0.15-0.15-0.4-0.15-0.56,0c-0.36,0.36-3.5,3.6-3.7,5.29
						c-0.18,1.62,3.47,3.48,4.89,4.14c-0.9,1.59-4.27,7.65-4.88,9.31c-0.7,1.92,4.46,24.64,5.05,27.23
						C126.81,222,126.97,222.12,127.15,222.12z"/>
				</g>
				<g>
					<path class="st13" d="M154.36,224c0.19,0,0.36-0.14,0.39-0.34c0.13-0.9,3.14-22.04,3.01-23.83c-0.13-1.63-3.6-9.89-4.41-11.8
						c1.28-0.5,3.92-1.68,3.84-2.97c-0.09-1.34-2.63-4.64-2.92-5.01c-0.13-0.17-0.38-0.2-0.55-0.07c-0.17,0.13-0.2,0.38-0.07,0.55
						c1.04,1.33,2.7,3.76,2.75,4.58c0.04,0.57-1.89,1.66-3.71,2.32c-0.1,0.04-0.18,0.11-0.23,0.21c-0.04,0.1-0.04,0.21,0,0.31
						c1.22,2.84,4.41,10.53,4.51,11.93c0.11,1.36-1.92,16.07-3,23.66c-0.03,0.22,0.12,0.42,0.34,0.45
						C154.32,224,154.34,224,154.36,224z"/>
				</g>
				<g>
					<path class="st13" d="M127.15,227.16c0.11,0,0.22-0.05,0.3-0.14c0.14-0.17,0.12-0.42-0.05-0.56l-8.32-7.05
						c-0.17-0.14-0.42-0.12-0.56,0.05c-0.14,0.17-0.12,0.42,0.05,0.56l8.32,7.05C126.97,227.13,127.06,227.16,127.15,227.16z"/>
				</g>
				<path class="st26" d="M143.25,158.19c0.75,1.39,2.45,2.19,4,1.89"/>
				<path class="st26" d="M140.47,146.78c0.61-0.8,1.71-1.34,2.87-1.41c1.16-0.07,2.35,0.32,3.11,1.03"/>
				<path class="st26" d="M147.94,151.3c0.08,1.3,0.16,2.61,0.24,3.91c0.03,0.42,0.04,0.89-0.22,1.22
					c-0.25,0.34-0.89,0.39-1.05-0.01"/>
			</g>
			<path class="st21" d="M104.22,255.82l1.38,4.12c0,0-4.42,2.33-1.38,7.03l-3.13,3.14c0,0-2.4-4.79-3.23-3.69
				c-0.83,1.1,1.48,8.01,3.23,8.01c1.75,0,7.61-0.02,10.07-1.94c2.46-1.93,2.73-15.52,2.73-15.52l-2.61-3.87L104.22,255.82z"/>
			<path class="st5" d="M117.86,178.11c-7.28,2.85-38.25,39.28-38.25,42.08c0,2.8,21.48,40.04,21.48,40.04l12.81-7.11l-11.68-31
				l16.92-19.4L117.86,178.11z"/>
			<g>
				<path class="st21" d="M172.11,234.48c3.66-0.46,6.03-2.68,5.51-5.2c-0.51-2.52,3.03-1.83,1.95-4.34
					c-1.08-2.51,2.19-4.34-0.28-6.2c-2.44-1.83-7.84,1.76-7.84,1.76L172.11,234.48z"/>
			</g>
			<polygon class="st11" points="146,198.93 178.39,204.43 170.06,257.23 136.79,251.84 			"/>
			<g>
				<path class="st21" d="M180.16,219.85c-1.15-1.9-7.21,0.85-7.2,2.07c0.01,1.22,2.46,1.38,2.46,1.38s-3.22,0.82-3.54,2.6
					c-0.25,1.37,2.34,1.31,2.34,1.31s-3.49,2.07-3.7,3.54c-0.2,1.47,2.06,0.53,2.06,0.53s-4.16,5.3,1.86,2.62l1.55-4.23l1.89-4.48
					L180.16,219.85z"/>
			</g>
		</g>
		<g>
			<path class="st7" d="M361.94,309.71H248.63c-2.22,0-4.01-1.8-4.01-4.01v-73.57c0-2.22,1.8-4.01,4.01-4.01h113.31
				c2.22,0,4.01,1.8,4.01,4.01v73.57C365.95,307.91,364.16,309.71,361.94,309.71z"/>
			<path class="st9" d="M357.49,305.25H244.18c-2.22,0-4.01-1.8-4.01-4.01v-73.57c0-2.22,1.8-4.01,4.01-4.01h113.31
				c2.22,0,4.01,1.8,4.01,4.01v73.57C361.5,303.46,359.7,305.25,357.49,305.25z"/>
			<rect x="263.37" y="260.02" class="st11" width="7.65" height="15.26"/>
			<rect x="280.28" y="275.28" class="st11" width="7.65" height="7.63"/>
			<rect x="297.2" y="269.01" class="st11" width="7.65" height="10.76"/>
			<rect x="314.11" y="249.2" class="st11" width="7.65" height="20.67"/>
			<rect x="331.02" y="238.37" class="st11" width="7.65" height="26.09"/>
			<rect x="263.37" y="275.28" class="st27" width="7.65" height="15.26"/>
			<rect x="280.28" y="282.91" class="st27" width="7.65" height="7.63"/>
			<rect x="297.2" y="279.78" class="st27" width="7.65" height="10.76"/>
			<rect x="314.11" y="269.87" class="st27" width="7.65" height="20.67"/>
			<rect x="331.02" y="264.46" class="st27" width="7.65" height="26.09"/>
			<polyline class="st28" points="346.79,290.54 254.88,290.54 254.88,238.37 			"/>
		</g>
	</g>
	<g>
		<path class="st7" d="M550.49,118.93h-39.18c-4.11,0-7.44-3.33-7.44-7.44V97.24c0-4.11,3.33-7.44,7.44-7.44h39.18
			c4.11,0,7.44,3.33,7.44,7.44v14.25C557.93,115.6,554.6,118.93,550.49,118.93z"/>
		<path class="st11" d="M548.41,116.85h-39.18c-4.11,0-7.44-3.33-7.44-7.44V95.16c0-4.11,3.33-7.44,7.44-7.44h39.18
			c4.11,0,7.44,3.33,7.44,7.44v14.25C555.85,113.52,552.52,116.85,548.41,116.85z"/>
	</g>
	<path class="st7" d="M286.15,218.97h-52.65c-5.52,0-10-4.48-10-10v-19.15c0-5.52,4.48-10,10-10h52.65c5.52,0,10,4.48,10,10v19.15
		C296.15,214.5,291.67,218.97,286.15,218.97z"/>
	<path class="st10" d="M284.38,217.21h-52.65c-5.52,0-10-4.48-10-10v-19.15c0-5.52,4.48-10,10-10h52.65c5.52,0,10,4.48,10,10v19.15
		C294.38,212.73,289.9,217.21,284.38,217.21z"/>
	<g>
		<rect x="226.7" y="347.97" class="st4" width="418.4" height="14.49"/>
	</g>
	<text transform="matrix(1 0 0 1 234.7182 206.2317)" class="st4 st29 st30">SELL</text>
	<text transform="matrix(1 0 0 1 512.7451 109.188)" class="st4 st29 st31">BUY</text>
</g>
</svg>
